<?xml version="1.0" standalone="no"?>
<!DOCTYPE svg PUBLIC "-//W3C//DTD SVG 20010904//EN"
 "http://www.w3.org/TR/2001/REC-SVG-20010904/DTD/svg10.dtd">
<svg version="1.0" xmlns="http://www.w3.org/2000/svg"
 width="300.000000pt" height="300.000000pt" viewBox="0 0 300.000000 300.000000"
 preserveAspectRatio="xMidYMid meet">
<metadata>
Created by potrace 1.11, written by Peter Selinger 2001-2013
</metadata>
<g transform="translate(0.000000,300.000000) scale(0.100000,-0.100000)"
fill="#000000" stroke="none">
<path d="M380 1996 l0 -25 1090 0 1090 0 0 25 0 24 -1090 0 -1090 0 0 -24z"/>
<path d="M2377 1834 c-2 -2 -12 -5 -23 -7 -65 -11 -130 -84 -151 -171 -9 -39
-9 -161 -1 -191 5 -16 10 -36 12 -43 6 -30 68 -102 103 -119 57 -27 157 -25
206 5 33 21 37 28 37 63 l0 40 -36 -27 c-42 -32 -126 -44 -173 -24 -25 10 -62
49 -67 70 0 3 -5 14 -9 25 -5 11 -9 58 -9 105 -1 67 4 94 20 125 30 57 73 84
132 81 50 -3 112 -22 112 -36 0 -4 7 -10 15 -14 12 -4 15 3 15 32 0 34 -4 41
-41 61 -34 19 -131 36 -142 25z"/>
<path d="M380 1793 c0 -37 -6 -35 138 -34 51 1 72 -3 72 -12 0 -6 -32 -106
-70 -222 -39 -115 -70 -216 -70 -223 0 -9 11 -12 32 -10 l31 3 83 254 c46 140
80 259 76 265 -4 7 -59 11 -150 11 l-142 0 0 -32z"/>
<path d="M1094 1816 c-21 -63 -155 -478 -160 -499 -6 -27 -5 -28 27 -25 33 3
35 6 53 71 l20 68 99 -3 100 -3 17 -52 c9 -29 15 -53 12 -53 -2 0 1 -7 8 -15
11 -14 70 -22 70 -10 0 3 -17 56 -37 118 -20 61 -38 117 -39 122 -6 31 -88
271 -94 278 -12 13 -72 15 -76 3z m62 -151 c10 -41 13 -50 15 -55 1 -3 3 -9 3
-15 1 -5 7 -20 14 -32 7 -13 10 -23 7 -23 -4 0 -3 -6 2 -12 17 -28 11 -38 -25
-39 -21 0 -54 -1 -75 -2 -20 -1 -37 0 -37 3 0 3 16 58 37 123 38 121 42 124
59 52z"/>
<path d="M1716 1821 c-8 -14 -166 -510 -166 -520 0 -8 12 -11 32 -9 29 3 33 8
52 68 l21 65 94 3 c107 3 103 6 127 -80 16 -56 18 -58 50 -58 l33 0 -19 63
c-10 34 -30 100 -45 147 -15 47 -28 90 -29 95 -1 6 -4 15 -7 20 -4 6 -19 51
-34 100 -15 50 -32 94 -36 99 -10 11 -68 16 -73 7z m48 -120 c9 -16 13 -31 10
-33 -2 -3 0 -16 5 -29 5 -13 10 -28 11 -34 1 -5 6 -16 12 -22 6 -7 8 -13 5
-13 -4 0 0 -18 8 -39 7 -22 10 -41 5 -43 -5 -2 -39 -1 -75 0 -73 4 -73 3 -41
90 8 23 13 42 10 42 -2 0 2 13 11 30 8 16 16 41 17 55 3 32 4 31 22 -4z"/>
<path d="M380 1095 l0 -25 1090 0 1090 0 0 25 0 25 -1090 0 -1090 0 0 -25z"/>
</g>
</svg>
